<?xml version="1.0" encoding="utf-8"?>
<!-- Generator: Adobe Illustrator 16.0.0, SVG Export Plug-In . SVG Version: 6.00 Build 0)  -->
<!DOCTYPE svg PUBLIC "-//W3C//DTD SVG 1.1//EN" "http://www.w3.org/Graphics/SVG/1.1/DTD/svg11.dtd">
<svg version="1.1" xmlns="http://www.w3.org/2000/svg" xmlns:xlink="http://www.w3.org/1999/xlink" x="0px" y="0px"
	 width="624.25px" height="262px" viewBox="0 0 624.25 262" enable-background="new 0 0 624.25 262" xml:space="preserve">
<g id="Layer_1">
	<g>
		<path fill-rule="evenodd" clip-rule="evenodd" fill="#F8F1F1" d="M470.517,146.396c-11.688,1.704-20.292,7.37-26.106,17.161
			c-3.758,6.325-5.372,13.159-5.467,20.502c-0.138,10.816,0.156,21.708-1.029,32.424c-1.651,14.923-12.207,25.74-27.136,27.03
			c-13.033,1.127-26.241,0.235-39.766,0.235c0-5.069,0-10.128,0-16.052c3.021,0,6.111,0.059,9.199-0.012
			c7.322-0.165,14.703,0.125,21.951-0.715c10.636-1.23,16.298-6.738,17.602-17.334c0.973-7.897,1.292-15.977,0.884-23.924
			c-1.153-22.472,8.947-37.853,28.935-47.826c-1.582-0.749-3.061-1.379-4.475-2.129c-15.183-8.043-24.049-20.186-24.333-37.799
			c-0.134-8.33,0.192-16.678-0.219-24.99c-0.831-16.822-7.573-23.314-24.361-23.819c-6.493-0.196-12.996-0.05-19.495-0.058
			c-1.801-0.003-3.603,0-5.741,0c0-5.562,0-10.639,0-16.488c3.995,0,7.928,0,11.859,0c6.332,0,12.664-0.008,18.996,0.002
			c21.509,0.033,36.094,13.9,37.018,35.529c0.37,8.65,0.257,17.33,0.126,25.991c-0.295,19.539,13.059,34.214,28.347,35.818
			c1.158,0.122,2.983,1.789,3.065,2.851C470.717,137.234,470.517,141.718,470.517,146.396z"/>
		<path fill-rule="evenodd" clip-rule="evenodd" fill="#F8F1F1" d="M245.048,227.71c0,5.648,0,10.591,0,16.135
			c-1.75,0.121-3.488,0.34-5.229,0.347c-8.992,0.034-17.985,0.057-26.978,0.003c-22.217-0.13-35.013-12.508-35.79-34.823
			c-0.285-8.151-0.32-16.324-0.084-24.477c0.555-19.127-12.821-36.105-29.841-38.168c-0.464-0.056-0.897-0.369-1.817-0.768
			c0-4.316-0.202-8.799,0.149-13.237c0.082-1.038,1.962-2.643,3.151-2.776c15.497-1.743,28.431-16.349,28.313-35.297
			c-0.051-8.159-0.01-16.319,0.029-24.479c0.113-22.934,16.473-38.856,38.066-37.646c9.773,0.549,19.604,0.094,29.84,0.094
			c0,5.537,0,10.716,0,16.486c-6.46,0-12.745,0-19.029,0c-0.834,0-1.666,0-2.498,0.002c-21.295,0.046-27.969,6.713-28.165,28.209
			c-0.06,6.493,0.004,12.988-0.019,19.482c-0.067,19.098-9.512,31.981-26.462,39.881c-0.599,0.279-1.197,0.562-1.779,0.873
			c-0.129,0.069-0.188,0.268-0.487,0.722c10.703,4.451,18.93,11.889,23.731,22.267c2.649,5.726,4.074,12.252,4.814,18.563
			c0.81,6.899,0.026,13.972,0.259,20.958c0.139,4.136,0.539,8.332,1.452,12.357c1.847,8.137,7.116,13.377,15.404,14.262
			c8.41,0.898,16.933,0.749,25.408,1.021C239.794,227.773,242.104,227.71,245.048,227.71z"/>
		<path fill-rule="evenodd" clip-rule="evenodd" fill="#F8F1F1" d="M342.035,189.955c-3.202,0-5.456-0.021-7.709,0.004
			c-4.16,0.047-8.353-0.189-12.474,0.238c-19.424,2.016-27.097,14.393-20.119,32.611c2.125,5.549,5.003,10.811,8.182,17.58
			c-4.383-2.371-8.055-3.963-11.301-6.182c-11.504-7.861-21.244-17.162-24.063-31.668c-3.505-18.025,9.3-35.009,27.616-36.699
			c3.092-0.285,6.158-0.842,10.106-1.395c-6.471-9.087-12.407-17.436-18.356-25.774c-4.35-6.097-8.557-12.305-13.146-18.215
			c-1.978-2.547-1.503-4.251,0.209-6.503c5.844-7.684,11.414-15.577,17.344-23.191c7.506-9.641,9.799-20.016,4.42-31.246
			c-4.23-8.831-9.174-17.318-13.605-26.055c-0.638-1.258-0.182-3.068-0.232-4.623c1.357,0.768,3.168,1.203,4.002,2.35
			c14.391,19.785,28.711,39.621,42.845,59.591c0.899,1.271,0.864,4.142,0.038,5.544c-5.234,8.885-10.921,17.502-16.253,26.331
			c-7.274,12.044-7.989,24.104,0.448,36.015c6.438,9.089,12.838,18.206,19.255,27.312
			C339.959,186.998,340.676,188.02,342.035,189.955z"/>
		<path fill-rule="evenodd" clip-rule="evenodd" fill="#F8F1F1" d="M499.498,22.197c11.755,0,23.185,0,35.436,0
			c0,18.854,0,37.677,0,57.806c9.082-7.455,18.163-12.129,28.459-12.849c8.213-0.574,16.787-0.735,24.763,0.972
			c22.433,4.802,35.408,22.501,35.87,48.354c0.419,23.481,0.123,46.977,0.128,70.465c0,0.812-0.154,1.623-0.28,2.865
			c-11.695,0-23.237,0-35.606,0c0-1.898,0-3.821,0-5.744c0-18.491,0.014-36.982-0.017-55.475c-0.004-2.66-0.064-5.337-0.36-7.979
			c-2.036-18.2-14.076-26.548-31.94-22.214c-12.094,2.935-19.914,11.88-20.338,25.204c-0.629,19.805-0.404,39.636-0.538,59.456
			c-0.015,2.146-0.002,4.291-0.002,6.9c-12.074,0-23.752,0-35.573,0C499.498,133.949,499.498,78.229,499.498,22.197z"/>
		<path fill-rule="evenodd" clip-rule="evenodd" fill="#F8F1F1" d="M80.064,119.144c0.3-12.609-6.517-20.756-18.384-22.768
			c-14.204-2.408-27.46,0.457-39.862,7.619c-1.285,0.742-2.521,1.568-4.443,2.77c-4.014-7.811-8.066-15.395-11.69-23.178
			c-0.396-0.852,1.323-3.412,2.647-4.226c12.477-7.674,26.316-11.129,40.755-12.221c11.177-0.846,22.312-0.352,33.16,2.945
			c19.959,6.066,32.644,21.11,33.396,41.983c0.899,24.951,0.602,49.945,0.685,74.922c0.004,1.291-1.252,3.701-1.966,3.717
			c-10.43,0.244-20.866,0.168-31.653,0.168c0-4.48,0-8.273,0-12.035c-0.653-0.082-1.133-0.248-1.213-0.135
			c-12.992,18.418-51.44,17.242-67.545,5.008C-7,167.8-3.921,134.831,20.279,124.651c7.779-3.273,16.666-4.635,25.169-5.289
			C56.844,118.483,68.357,119.144,80.064,119.144z M79.895,140.556c-10.426,0-20.57-0.098-30.709,0.08
			c-2.084,0.035-4.22,0.928-6.213,1.721c-4.348,1.734-7.071,4.852-7.576,9.67c-0.544,5.195,0.676,9.867,5.333,12.6
			c9.99,5.861,20.2,4.916,29.939-0.553C79.719,158.993,81.919,150.718,79.895,140.556z"/>
	</g>
</g>
<g id="Layer_2">
	<g id="piedra_2_">
		<circle fill-rule="evenodd" clip-rule="evenodd" fill="#16C79A" cx="214.214" cy="488.015" r="214.214"/>
		<path id="piedra_3_" fill-rule="evenodd" clip-rule="evenodd" fill="#F8F1F1" d="M150.278,374.516
			c17.939-18.558,27.501-20.068,49.342-8.401c20.486-22.534,38.544-22.709,56.147,0.137c11.947-6.866,24.494-11.236,37.783-2.774
			c9.657,6.149,14.503,15.039,13.851,26.327c-0.418,7.257,2.5,10.591,8.213,15.195c6.39,5.154,12.809,14.413,13.175,22.169
			c1.462,30.915,1.479,61.979,0.342,92.926c-1.843,50.378-40.944,93.529-93.144,104.558
			c-48.499,10.248-102.077-15.973-124.254-60.831c-8.681-17.561-13.378-35.959-13.18-55.746
			c0.351-35.007,0.377-70.023-0.057-105.031c-0.17-13.793,2.288-26.024,15.183-33.057
			C126.25,363.128,138.519,365.654,150.278,374.516z M107.847,463.939c1.309,23.756-0.1,47.513,4.411,70.084
			c10.646,53.333,61.022,87.389,116.039,81.283c50.35-5.591,90.76-51.957,90.778-104.178c0.01-26.176,0.032-52.347-0.023-78.522
			c-0.038-16.055-5.691-21.756-21.732-21.79c-33.421-0.067-66.844-0.023-100.267-0.023c-5.846,0-11.692,0-17.609,0
			c1.982,22.975,19.367,38.792,42.62,39.598c16.489,0.571,33.023-0.071,49.515,0.491c3.604,0.123,7.111,3.064,10.663,4.706
			c-3.485,1.857-6.847,5.008-10.478,5.362c-23.345,2.257-41.583,13.175-53.044,33.211c-5.402,9.441-6.786,21.134-10.455,31.646
			c-1.079,3.093-3.74,5.638-5.679,8.435c-1.552-3.15-3.696-6.168-4.465-9.503c-0.591-2.563,0.014-5.737,1.001-8.282
			c5.431-13.98,11.145-27.85,17.012-42.384c-3.3-2.441-8.057-5.954-12.804-9.461c-21.625,16.389-34.833,15.324-52.868-4.233
			C133.936,470.159,133.936,470.159,107.847,463.939z M109.16,418.068c-0.023,0-0.047,0-0.073,0c0,6.845-0.215,13.702,0.047,20.538
			c0.437,11.325,8.224,19.274,18.825,19.596c9.871,0.301,19.031-6.811,19.67-17.505c0.934-15.638,0.91-31.406,0.045-47.046
			c-0.579-10.428-9.898-17.478-19.917-17.171c-9.804,0.303-17.931,8.179-18.513,18.637
			C108.82,402.747,109.16,410.415,109.16,418.068z M196.731,399.927c2.492-19.092-3.919-29.823-17.419-30.641
			c-12.997-0.786-21.087,9.177-21.152,26.301c-0.067,16.477-0.201,32.958,0.148,49.427c0.21,9.89,5.575,16.989,14.986,19.629
			c9.487,2.661,17.086-0.896,20.642-7.286c-8.43-12.07-17.422-21.971-22.903-33.534c-7.068-14.899-0.854-22.856,15.503-23.329
			C189.71,400.404,192.876,400.146,196.731,399.927z M208.481,399.667c13.729,0,25.987,0,39.139,0
			c-1.001-13.204,4.766-27.669-9.13-35.833c-5.17-3.032-14.571-3.428-19.898-0.754C203.296,370.762,209.336,385.84,208.481,399.667z
			 M296.39,399.885c1.934-11.745,2.022-22.984-9.509-27.665c-5.896-2.391-15.214-1.481-20.823,1.72
			c-9.404,5.365-9.45,15.556-6.899,25.945C271.583,399.885,283.487,399.885,296.39,399.885z"/>
	</g>
	<g id="tijera">
		<g>
			<circle fill-rule="evenodd" clip-rule="evenodd" fill="#16C79A" cx="214.214" cy="926.015" r="214.214"/>
		</g>
		<path id="Tijera" fill-rule="evenodd" clip-rule="evenodd" fill="#F8F1F1" d="M134.327,875.108
			c14.333-21.518,23.962-24.696,49.701-15.837c0-5.489,0.002-10.508,0-15.522c-0.012-30.202-0.14-60.406,0.009-90.608
			c0.1-20.264,12.158-33.278,30.227-33.152c17.846,0.128,29.345,12.354,29.56,32.481c0.314,29.345,0.081,58.7,2.393,88.593
			c3.426-12.199,6.89-24.383,10.262-36.594c3.317-12.007,6.11-24.18,9.906-36.027c5.068-15.799,20.676-23.801,36.505-19.443
			c15.466,4.256,24.783,19.608,20.786,35.709c-5.514,22.197-11.709,44.229-18.01,67.812c7.981-2.593,14.753-5.288,21.773-6.952
			c9.312-2.199,15.869,2.314,15.813,11.519c-0.303,48.679,2.795,97.862-3.127,145.909c-7.603,61.688-64.47,105.266-127.054,105.087
			c-62.64-0.175-115.398-43.093-125.699-105.277c-3.971-23.966-2.012-48.924-2.635-73.433c-0.202-8.052-0.059-16.108-0.029-24.165
			C84.835,873.855,105.717,860.9,134.327,875.108z M283.257,945.599c0-9.177-0.334-16.832,0.076-24.449
			c0.711-13.2,0.143-26.795,3.207-39.479c7.73-32.008,17.294-63.572,25.897-95.376c3.745-13.839-1.02-23.889-12.227-27.123
			c-11.619-3.357-21.477,2.408-25.222,16c-10.145,36.811-19.901,73.73-29.601,110.662c-1.714,6.523-4.084,13.825,6.749,15.577
			c1.723,0.277,2.901,3.924,4.332,6.012c-2.297,1.128-4.543,3.088-6.896,3.229c-7.137,0.423-14.328,0.411-21.463-0.019
			c-2.319-0.142-4.527-2.098-6.787-3.224c1.413-2.07,2.709-4.233,4.258-6.197c2.59-3.288,7.646-6.423,7.681-9.665
			c0.501-47.132,0.486-94.27,0.227-141.4c-0.065-11.863-8.793-19.874-19.896-19.714c-10.68,0.153-18.37,7.785-19.213,19.213
			c-0.205,2.806-0.033,5.639-0.035,8.459c-0.005,60.43,0.021,120.858-0.048,181.287c-0.014,12.558-4.396,22.848-16.401,28.566
			c-12.174,5.804-23.412,4.122-33.679-4.543c-1.488-1.252-3.046-2.423-4.932-3.914c-12.679,13.475-27.247,14.559-44.212,6.066
			c0,6.034-0.071,10.749,0.011,15.46c1.087,62.385,50.332,113.467,112.65,116.877c61.625,3.367,118.804-43.146,123.658-104.795
			c3.5-44.443,1.332-89.329,1.606-134.02c0.005-1.008-1.051-2.023-1.558-2.941c-21.549,2.339-37.156,19.888-37.827,42.905
			c-0.409,14.086-0.264,28.201-0.01,42.298c0.156,8.614-3.298,13.534-12.022,15.098c-37.231,6.673-57.913,28.875-62.369,66.501
			c-0.301,2.55-3.712,4.73-5.677,7.081c-1.351-2.933-4.468-6.392-3.772-8.711c4.32-14.431,7.319-29.901,14.875-42.571
			C237.11,957.829,258.622,949.005,283.257,945.599z M184.09,914.852c-0.06,0-0.115,0-0.173,0c0-10.442,0.491-20.915-0.139-31.32
			c-0.635-10.475-9.08-18.603-18.396-19.009c-10.347-0.448-19.905,6.862-20.415,18.017c-0.911,20.037-0.923,40.164-0.165,60.206
			c0.416,10.932,10.182,18.727,20.212,18.417c9.825-0.307,18.47-8.975,18.989-19.801C184.427,932.545,184.09,923.69,184.09,914.852z
			 M95.094,920.748c0,6.841-0.203,13.686,0.045,20.517c0.395,10.85,8.658,19.316,18.875,19.699
			c10.34,0.388,19.49-7.419,19.945-18.498c0.607-14.861,0.538-29.778-0.05-44.643c-0.441-11.141-9.164-18.542-19.94-18.292
			c-10.56,0.246-18.36,8.136-18.822,19.494C94.849,906.254,95.089,913.509,95.094,920.748z"/>
	</g>
	<g id="papel">
		<g>
			<circle fill-rule="evenodd" clip-rule="evenodd" fill="#16C79A" cx="678.214" cy="926.015" r="214.214"/>
		</g>
		<g id="Papel">
			<path fill-rule="evenodd" clip-rule="evenodd" fill="#F8F1F1" d="M598.412,810.401c0-5.495-0.015-10.588,0.003-15.684
				c0.105-33.156,17.024-45.249,45.7-34.95c6.477-8.562,11.476-17.766,18.935-24.051c4.488-3.788,12.893-4.425,19.389-4.028
				c15.07,0.913,22.576,11.726,26.779,36.349c3.049-1.068,5.979-2.239,8.992-3.132c20.885-6.168,38.726,7.014,39.262,29.718
				c0.534,22.543,0.168,45.109,0.194,67.663c0.004,3.895,0,7.787,0,11.022c10.809-5.62,20.45-12.153,31.085-15.759
				c12.24-4.146,18.394,1.194,18.427,14.144c0.11,41.888,1.769,83.877-0.588,125.635c-2.946,52.183-29.843,90.756-77.85,111.467
				c-48.003,20.716-93.995,13.625-134.481-19.875c-31.341-25.936-45.734-60.369-45.678-100.965
				c0.066-47.126,0.029-94.251,0.035-141.375C548.624,811.067,563.487,799.827,598.412,810.401z M647.917,904.355
				c0-40.043,0.311-79.484-0.191-118.917c-0.146-11.484-10.543-20.165-20.658-19.421c-10.413,0.766-18.242,9.711-18.278,21.664
				c-0.118,39.891-0.201,79.784,0.267,119.67c0.043,3.437,4.208,6.847,6.527,10.22c1.586,2.314,3.291,4.548,4.943,6.817
				c-2.299,1.084-4.552,2.958-6.913,3.102c-6.763,0.418-13.587,0.384-20.355-0.011c-2.345-0.137-4.598-1.854-6.894-2.848
				c1.55-2.356,3.044-4.758,4.669-7.064c2.368-3.363,6.836-6.607,6.925-9.994c0.614-23.354,0.496-46.734,0.251-70.103
				c-0.137-13.082-8.138-21.374-19.679-21.301c-10.938,0.068-19.674,9.125-19.711,21.569c-0.158,52.381-1.141,104.795,0.26,157.144
				c1.726,64.588,57.014,115.88,121.217,114.626c63.8-1.242,116.568-55.305,116.632-119.54c0.037-36.668,0.019-73.337-0.034-110.006
				c-0.003-4.197-0.384-8.393-0.594-12.628c-22.371,2.352-37.477,19.016-38.485,41.978c-0.584,13.269-0.654,26.61-0.025,39.878
				c0.563,11.857-4.116,17.544-15.972,19.553c-32.25,5.461-54.672,30.082-58.289,62.133c-0.4,3.572-3.417,6.853-5.22,10.267
				c-1.591-3.514-4.548-7.022-4.559-10.54c-0.087-32.979,28.467-66.038,62.589-71.479c9.343-1.491,11.714-4.765,11.631-13.713
				c-0.441-48.749-0.238-97.509-0.427-146.263c-0.016-4.359-0.392-9.067-2.065-12.986c-3.613-8.455-10.265-13.887-19.883-12.293
				c-9.47,1.568-17.099,7.184-17.219,17.408c-0.473,39.432-0.192,78.873-0.192,118.115c2.307,0.922,4.075,1.191,5.228,2.181
				c2.379,2.041,4.426,4.465,6.609,6.731c-2.913,1.077-5.764,2.776-8.758,3.098c-6.332,0.681-12.758,0.981-19.111,0.699
				c-2.241-0.1-4.384-2.364-6.573-3.639c1.333-2.024,2.392-5.507,4.05-5.82c7.343-1.393,8.129-5.931,8.101-12.273
				c-0.206-44.727-0.05-89.457-0.146-134.183c-0.036-15.504-7.99-24.941-20.24-24.613c-11.823,0.315-19.175,9.497-19.203,24.514
				c-0.083,42.308-0.038,84.619-0.01,126.927c0.002,6.354-1.098,13.244,8.56,14.21c1.487,0.149,2.598,4.068,3.882,6.242
				c-2.014,1.013-3.995,2.808-6.05,2.894c-7.208,0.304-14.457,0.262-21.659-0.17c-2.463-0.149-4.83-1.836-7.241-2.82
				c1.695-2.323,3.038-5.076,5.196-6.829C642.462,905.204,645.145,905.142,647.917,904.355z"/>
		</g>
	</g>
	<g>
		<path fill-rule="evenodd" clip-rule="evenodd" fill="#16C79A" d="M574.8,276.448c68.855,0,137.718,0,206.581,0
			c1.33,0.25,2.662,0.582,4.007,0.73c11.565,1.271,22.887,3.832,33.377,8.793c45.443,21.489,69.943,57.469,70.646,107.789
			c0.879,62.784,0.263,125.595,0.188,188.392c-0.03,24.336-6.579,46.886-20.724,66.725c-23.974,33.632-56.984,50.493-98.273,50.604
			c-61.695,0.163-123.397,0.117-185.093-0.052c-7.942-0.021-16.074-0.44-23.797-2.145c-47.906-10.579-78.547-39.712-91.694-86.997
			c-1.717-6.182-2.341-12.668-3.47-19.012c0-68.859,0-137.721,0-206.579c0.69-4.323,1.142-8.698,2.102-12.962
			c10.777-47.937,39.799-78.671,87.166-91.823C561.994,278.198,568.464,277.577,574.8,276.448z M852.117,488.408
			c0-30.706,0.025-61.409-0.013-92.113c-0.013-9.676-0.978-19.23-4.252-28.425c-11.931-33.497-40.788-53.811-77.128-53.882
			c-61.684-0.117-123.373-0.204-185.05,0.156c-9.213,0.055-18.842,1.338-27.536,4.261c-33.836,11.393-54.01,40.688-54.059,77.252
			c-0.079,61.544-0.196,123.093,0.166,184.64c0.054,9.213,1.307,18.846,4.221,27.543c11.267,33.666,40.495,54.043,76.774,54.135
			c61.964,0.152,123.922,0.116,185.88,0.006c27.574-0.05,49.855-11.074,66.223-33.396c10.54-14.379,14.811-30.787,14.786-48.477
			C852.087,549.539,852.117,518.974,852.117,488.408z"/>
		<path fill-rule="evenodd" clip-rule="evenodd" fill="#16C79A" d="M678.034,597.015c-59.941-0.069-109.173-49.393-108.978-109.185
			c0.201-60.009,49.573-109.199,109.29-108.876c59.936,0.328,108.702,49.194,108.77,108.982
			C787.185,547.789,737.885,597.083,678.034,597.015z M749.499,488.141c0.22-39.246-31.739-71.348-71.256-71.566
			c-39.255-0.222-71.351,31.731-71.569,71.256c-0.22,39.249,31.733,71.346,71.256,71.569
			C717.173,559.622,749.28,527.654,749.499,488.141z"/>
		<path fill-rule="evenodd" clip-rule="evenodd" fill="#16C79A" d="M791.65,347.265c15.157-0.023,27.763,12.59,27.562,27.582
			c-0.196,15.002-12.55,27.251-27.494,27.266c-15.121,0.017-27.757-12.633-27.574-27.61
			C764.327,359.478,776.639,347.289,791.65,347.265z"/>
	</g>
</g>
</svg>
